<?xml version="1.0" encoding="UTF-8"?>
<svg xmlns="http://www.w3.org/2000/svg" viewBox="0 0 1200 900">
<title>Square-grid Temperley: disorder-induced spatial height fluctuations</title><desc>Bootstrap intervals with nested log and log-plus-log-squared fits.</desc>
<rect width="1200" height="900" fill="white"/>
<text x="600.0" y="34" text-anchor="middle" font-family="Arial" font-size="22" font-weight="bold">Square-grid Temperley: disorder-induced spatial height fluctuations</text>
<rect x="35" y="65" width="540" height="365" fill="#fcfcfc" stroke="#cccccc"/>
<text x="305.0" y="90" text-anchor="middle" font-family="Arial" font-size="16" font-weight="bold">separation = 1/32 of full side 2L</text>
<line x1="93.0" y1="382.0" x2="557.0" y2="382.0" stroke="#e6e6e6"/>
<text x="86.0" y="386.0" text-anchor="end" font-family="Arial" font-size="10">-0.47</text>
<line x1="93.0" y1="313.25" x2="557.0" y2="313.25" stroke="#e6e6e6"/>
<text x="86.0" y="317.25" text-anchor="end" font-family="Arial" font-size="10">-0.19</text>
<line x1="93.0" y1="244.49999999999997" x2="557.0" y2="244.49999999999997" stroke="#e6e6e6"/>
<text x="86.0" y="248.49999999999997" text-anchor="end" font-family="Arial" font-size="10">0.078</text>
<line x1="93.0" y1="175.74999999999997" x2="557.0" y2="175.74999999999997" stroke="#e6e6e6"/>
<text x="86.0" y="179.74999999999997" text-anchor="end" font-family="Arial" font-size="10">0.35</text>
<line x1="93.0" y1="106.99999999999997" x2="557.0" y2="106.99999999999997" stroke="#e6e6e6"/>
<text x="86.0" y="110.99999999999997" text-anchor="end" font-family="Arial" font-size="10">0.62</text>
<line x1="93.0" y1="107.0" x2="93.0" y2="382.0" stroke="black"/>
<line x1="93.0" y1="382.0" x2="557.0" y2="382.0" stroke="black"/>
<line x1="93.0" y1="252.8197714598826" x2="93.0" y2="248.31462814153346" stroke="#aaaaaa"/>
<circle cx="93.0" cy="250.55822717869756" r="3.5" fill="#aaaaaa" stroke="#aaaaaa" stroke-width="1.5"/>
<line x1="154.1736709253189" y1="253.20649864728455" x2="154.1736709253189" y2="247.70471436491067" stroke="#aaaaaa"/>
<circle cx="154.1736709253189" cy="250.4722391072173" r="3.5" fill="#aaaaaa" stroke="#aaaaaa" stroke-width="1.5"/>
<line x1="215.3473418506378" y1="252.6568642836062" x2="215.3473418506378" y2="246.42039488605752" stroke="#aaaaaa"/>
<circle cx="215.3473418506378" cy="249.54379634885296" r="3.5" fill="#aaaaaa" stroke="#aaaaaa" stroke-width="1.5"/>
<line x1="276.5210127759567" y1="247.15286198296076" x2="276.5210127759567" y2="239.96983256436724" stroke="#aaaaaa"/>
<circle cx="276.5210127759567" cy="243.5784228834874" r="3.5" fill="#aaaaaa" stroke="#aaaaaa" stroke-width="1.5"/>
<line x1="337.6946837012756" y1="247.60138977544122" x2="337.6946837012756" y2="238.55309771348777" stroke="#aaaaaa"/>
<circle cx="337.6946837012756" cy="243.11217312622767" r="3.5" fill="#aaaaaa" stroke="#aaaaaa" stroke-width="1.5"/>
<line x1="373.4789872240433" y1="247.75726073886054" x2="373.4789872240433" y2="237.39793806412135" stroke="#aaaaaa"/>
<circle cx="373.4789872240433" cy="242.59913656087338" r="3.5" fill="#aaaaaa" stroke="#aaaaaa" stroke-width="1.5"/>
<line x1="398.8683546265945" y1="248.0895853618717" x2="398.8683546265945" y2="235.2161033574502" stroke="#222222"/>
<circle cx="398.8683546265945" cy="241.52489650561515" r="3.5" fill="#222222" stroke="#222222" stroke-width="1.5"/>
<line x1="434.6526581493622" y1="253.60385211424543" x2="434.6526581493622" y2="235.58628218636915" stroke="#222222"/>
<circle cx="434.6526581493622" cy="244.53815008728338" r="3.5" fill="#222222" stroke="#222222" stroke-width="1.5"/>
<line x1="460.04202555191347" y1="245.79508084423216" x2="460.04202555191347" y2="222.42594028285112" stroke="#222222"/>
<circle cx="460.04202555191347" cy="234.0843118248383" r="3.5" fill="#222222" stroke="#222222" stroke-width="1.5"/>
<line x1="479.73554889016776" y1="260.00281458075125" x2="479.73554889016776" y2="222.41844498955317" stroke="#222222"/>
<circle cx="479.73554889016776" cy="241.40651894674556" r="3.5" fill="#222222" stroke="#222222" stroke-width="1.5"/>
<line x1="495.8263290746811" y1="256.65263400303843" x2="495.8263290746811" y2="210.85873398989264" stroke="#222222"/>
<circle cx="495.8263290746811" cy="233.68711499962345" r="3.5" fill="#222222" stroke="#222222" stroke-width="1.5"/>
<line x1="521.2156964772323" y1="257.9604595041134" x2="521.2156964772323" y2="184.61039499255574" stroke="#222222"/>
<circle cx="521.2156964772323" cy="222.16518116998" r="3.5" fill="#222222" stroke="#222222" stroke-width="1.5"/>
<line x1="540.9092198154867" y1="300.45712500732327" x2="540.9092198154867" y2="232.21822606137255" stroke="#222222"/>
<circle cx="540.9092198154867" cy="266.5372044774633" r="4.5" fill="white" stroke="#222222" stroke-width="1.5"/>
<line x1="557.0" y1="331.5590828931279" x2="557.0" y2="157.44091710687206" stroke="#222222"/>
<circle cx="557.0" cy="243.93415638203618" r="4.5" fill="white" stroke="#222222" stroke-width="1.5"/>
<polyline points="398.8683546265945,245.73343193264571 434.6526581493622,240.59782630261236 460.04202555191347,236.95405612726697 479.73554889016776,234.1277283902698 495.8263290746811,231.81845049471153 521.2156964772323,228.17468030675587 540.9092198154867,225.34835256975873 557.0,223.0390746742005" fill="none" stroke="#2864dc" stroke-width="2.2"/>
<polyline points="398.8683546265945,241.38305126466477 434.6526581493622,242.80062389378057 460.04202555191347,240.47252999517144 479.73554889016776,236.7609591415554 495.8263290746811,232.49242924232107 521.2156964772323,223.49657997137217 540.9092198154867,214.61309626691195 557.0,206.1188058516879" fill="none" stroke="#e68613" stroke-width="2.2" stroke-dasharray="7,4"/>
<text x="325.0" y="420" text-anchor="middle" font-family="Arial" font-size="12">log separation</text>
<rect x="610" y="65" width="540" height="365" fill="#fcfcfc" stroke="#cccccc"/>
<text x="880.0" y="90" text-anchor="middle" font-family="Arial" font-size="16" font-weight="bold">separation = 1/16 of full side 2L</text>
<line x1="668.0" y1="382.0" x2="1132.0" y2="382.0" stroke="#e6e6e6"/>
<text x="661.0" y="386.0" text-anchor="end" font-family="Arial" font-size="10">-0.45</text>
<line x1="668.0" y1="313.25" x2="1132.0" y2="313.25" stroke="#e6e6e6"/>
<text x="661.0" y="317.25" text-anchor="end" font-family="Arial" font-size="10">-0.21</text>
<line x1="668.0" y1="244.49999999999997" x2="1132.0" y2="244.49999999999997" stroke="#e6e6e6"/>
<text x="661.0" y="248.49999999999997" text-anchor="end" font-family="Arial" font-size="10">0.02</text>
<line x1="668.0" y1="175.75" x2="1132.0" y2="175.75" stroke="#e6e6e6"/>
<text x="661.0" y="179.75" text-anchor="end" font-family="Arial" font-size="10">0.25</text>
<line x1="668.0" y1="106.99999999999999" x2="1132.0" y2="106.99999999999999" stroke="#e6e6e6"/>
<text x="661.0" y="110.99999999999999" text-anchor="end" font-family="Arial" font-size="10">0.49</text>
<line x1="668.0" y1="107.0" x2="668.0" y2="382.0" stroke="black"/>
<line x1="668.0" y1="382.0" x2="1132.0" y2="382.0" stroke="black"/>
<line x1="668.0" y1="235.03763390399175" x2="668.0" y2="228.6543581846863" stroke="#aaaaaa"/>
<circle cx="668.0" cy="231.82922960825564" r="3.5" fill="#aaaaaa" stroke="#aaaaaa" stroke-width="1.5"/>
<line x1="729.1736709253189" y1="233.38122377435622" x2="729.1736709253189" y2="226.0389135399484" stroke="#aaaaaa"/>
<circle cx="729.1736709253189" cy="229.69959031305342" r="3.5" fill="#aaaaaa" stroke="#aaaaaa" stroke-width="1.5"/>
<line x1="790.3473418506378" y1="232.1652439088578" x2="790.3473418506378" y2="223.8958314679455" stroke="#aaaaaa"/>
<circle cx="790.3473418506378" cy="228.00669839024906" r="3.5" fill="#aaaaaa" stroke="#aaaaaa" stroke-width="1.5"/>
<line x1="851.5210127759567" y1="230.37735596339314" x2="851.5210127759567" y2="221.04811267840137" stroke="#aaaaaa"/>
<circle cx="851.5210127759567" cy="225.78869753210552" r="3.5" fill="#aaaaaa" stroke="#aaaaaa" stroke-width="1.5"/>
<line x1="912.6946837012756" y1="235.9014228725299" x2="912.6946837012756" y2="224.72192857797225" stroke="#aaaaaa"/>
<circle cx="912.6946837012756" cy="230.2710216520934" r="3.5" fill="#aaaaaa" stroke="#aaaaaa" stroke-width="1.5"/>
<line x1="948.4789872240433" y1="230.71078922586634" x2="948.4789872240433" y2="217.17757650439137" stroke="#aaaaaa"/>
<circle cx="948.4789872240433" cy="224.04379166626416" r="3.5" fill="#aaaaaa" stroke="#aaaaaa" stroke-width="1.5"/>
<line x1="973.8683546265945" y1="235.80205639910383" x2="973.8683546265945" y2="219.30796435661648" stroke="#222222"/>
<circle cx="973.8683546265945" cy="227.53024933661413" r="3.5" fill="#222222" stroke="#222222" stroke-width="1.5"/>
<line x1="1009.6526581493622" y1="225.8006774322369" x2="1009.6526581493622" y2="202.69751686314103" stroke="#222222"/>
<circle cx="1009.6526581493622" cy="214.31093046815" r="3.5" fill="#222222" stroke="#222222" stroke-width="1.5"/>
<line x1="1035.0420255519134" y1="224.7597854656917" x2="1035.0420255519134" y2="194.3662606945336" stroke="#222222"/>
<circle cx="1035.0420255519134" cy="209.44755769368436" r="3.5" fill="#222222" stroke="#222222" stroke-width="1.5"/>
<line x1="1054.7355488901678" y1="240.6986635747814" x2="1054.7355488901678" y2="191.2627691010124" stroke="#222222"/>
<circle cx="1054.7355488901678" cy="216.66535676619455" r="3.5" fill="#222222" stroke="#222222" stroke-width="1.5"/>
<line x1="1070.826329074681" y1="233.91834148567835" x2="1070.826329074681" y2="180.59728319051686" stroke="#222222"/>
<circle cx="1070.826329074681" cy="207.37502225311962" r="3.5" fill="#222222" stroke="#222222" stroke-width="1.5"/>
<line x1="1096.2156964772323" y1="256.16884968458794" x2="1096.2156964772323" y2="172.47641570080987" stroke="#222222"/>
<circle cx="1096.2156964772323" cy="215.06497493109237" r="3.5" fill="#222222" stroke="#222222" stroke-width="1.5"/>
<line x1="1115.9092198154867" y1="255.93757669954607" x2="1115.9092198154867" y2="165.7564382188238" stroke="#222222"/>
<circle cx="1115.9092198154867" cy="210.14915853950833" r="4.5" fill="white" stroke="#222222" stroke-width="1.5"/>
<line x1="1132.0" y1="323.24356178117614" x2="1132.0" y2="191.9690612371331" stroke="#222222"/>
<circle cx="1132.0" cy="257.13786074324213" r="4.5" fill="white" stroke="#222222" stroke-width="1.5"/>
<polyline points="973.8683546265945,221.83844776162744 1009.6526581493622,218.1767992451689 1035.0420255519134,215.57881825656827 1054.7355488901678,213.56366767330678 1070.826329074681,211.91716976067448 1096.2156964772323,209.31918877207386 1115.9092198154867,207.3040381888124 1132.0,205.65754024680183" fill="none" stroke="#2864dc" stroke-width="2.2"/>
<polyline points="973.8683546265945,226.93300508681983 1009.6526581493622,215.5971908072349 1035.0420255519134,211.45847381795625 1054.7355488901678,210.479996124686 1070.826329074681,211.12790010794265 1096.2156964772323,214.7975255247801 1115.9092198154867,219.87566876890457 1132.0,225.47219236671089" fill="none" stroke="#e68613" stroke-width="2.2" stroke-dasharray="7,4"/>
<text x="900.0" y="420" text-anchor="middle" font-family="Arial" font-size="12">log separation</text>
<rect x="35" y="465" width="540" height="365" fill="#fcfcfc" stroke="#cccccc"/>
<text x="305.0" y="490" text-anchor="middle" font-family="Arial" font-size="16" font-weight="bold">separation = 1/8 of full side 2L</text>
<line x1="93.0" y1="782.0" x2="557.0" y2="782.0" stroke="#e6e6e6"/>
<text x="86.0" y="786.0" text-anchor="end" font-family="Arial" font-size="10">-0.43</text>
<line x1="93.0" y1="713.25" x2="557.0" y2="713.25" stroke="#e6e6e6"/>
<text x="86.0" y="717.25" text-anchor="end" font-family="Arial" font-size="10">-0.11</text>
<line x1="93.0" y1="644.5" x2="557.0" y2="644.5" stroke="#e6e6e6"/>
<text x="86.0" y="648.5" text-anchor="end" font-family="Arial" font-size="10">0.21</text>
<line x1="93.0" y1="575.75" x2="557.0" y2="575.75" stroke="#e6e6e6"/>
<text x="86.0" y="579.75" text-anchor="end" font-family="Arial" font-size="10">0.53</text>
<line x1="93.0" y1="507.0" x2="557.0" y2="507.0" stroke="#e6e6e6"/>
<text x="86.0" y="511.0" text-anchor="end" font-family="Arial" font-size="10">0.85</text>
<line x1="93.0" y1="507.0" x2="93.0" y2="782.0" stroke="black"/>
<line x1="93.0" y1="782.0" x2="557.0" y2="782.0" stroke="black"/>
<line x1="93.0" y1="675.0538512080954" x2="93.0" y2="669.5431296174354" stroke="#aaaaaa"/>
<circle cx="93.0" cy="672.3216011701808" r="3.5" fill="#aaaaaa" stroke="#aaaaaa" stroke-width="1.5"/>
<line x1="154.17367092531893" y1="676.6802659429908" x2="154.17367092531893" y2="670.7437851731722" stroke="#aaaaaa"/>
<circle cx="154.17367092531893" cy="673.6652144763439" r="3.5" fill="#aaaaaa" stroke="#aaaaaa" stroke-width="1.5"/>
<line x1="215.34734185063786" y1="673.2730444397808" x2="215.34734185063786" y2="666.2580250440253" stroke="#aaaaaa"/>
<circle cx="215.34734185063786" cy="669.763599133292" r="3.5" fill="#aaaaaa" stroke="#aaaaaa" stroke-width="1.5"/>
<line x1="276.5210127759567" y1="673.6197960654199" x2="276.5210127759567" y2="666.0967948444389" stroke="#aaaaaa"/>
<circle cx="276.5210127759567" cy="669.8561573585953" r="3.5" fill="#aaaaaa" stroke="#aaaaaa" stroke-width="1.5"/>
<line x1="337.6946837012756" y1="672.626253625956" x2="337.6946837012756" y2="663.4631979466661" stroke="#aaaaaa"/>
<circle cx="337.6946837012756" cy="667.9964901212651" r="3.5" fill="#aaaaaa" stroke="#aaaaaa" stroke-width="1.5"/>
<line x1="373.4789872240433" y1="676.6680629392584" x2="373.4789872240433" y2="666.0563024130463" stroke="#aaaaaa"/>
<circle cx="373.4789872240433" cy="671.376123472492" r="3.5" fill="#aaaaaa" stroke="#aaaaaa" stroke-width="1.5"/>
<line x1="398.8683546265945" y1="663.5062097550158" x2="398.8683546265945" y2="649.8332312831667" stroke="#222222"/>
<circle cx="398.8683546265945" cy="656.6919774217644" r="3.5" fill="#222222" stroke="#222222" stroke-width="1.5"/>
<line x1="434.6526581493622" y1="674.8959066054551" x2="434.6526581493622" y2="655.2531950082259" stroke="#222222"/>
<circle cx="434.6526581493622" cy="665.1070501078747" r="3.5" fill="#222222" stroke="#222222" stroke-width="1.5"/>
<line x1="460.04202555191347" y1="676.7309009232015" x2="460.04202555191347" y2="651.2551622064843" stroke="#222222"/>
<circle cx="460.04202555191347" cy="663.7509186712235" r="3.5" fill="#222222" stroke="#222222" stroke-width="1.5"/>
<line x1="479.73554889016776" y1="701.3040669960441" x2="479.73554889016776" y2="663.3790626542034" stroke="#222222"/>
<circle cx="479.73554889016776" cy="682.4418004417328" r="3.5" fill="#222222" stroke="#222222" stroke-width="1.5"/>
<line x1="495.8263290746811" y1="691.5977717319327" x2="495.8263290746811" y2="649.4916733591292" stroke="#222222"/>
<circle cx="495.8263290746811" cy="670.4968802824418" r="3.5" fill="#222222" stroke="#222222" stroke-width="1.5"/>
<line x1="521.2156964772324" y1="739.0317829065987" x2="521.2156964772324" y2="655.6321076740552" stroke="#222222"/>
<circle cx="521.2156964772324" cy="696.8412232608052" r="3.5" fill="#222222" stroke="#222222" stroke-width="1.5"/>
<line x1="540.9092198154867" y1="691.888936384871" x2="540.9092198154867" y2="585.9972667135867" stroke="#222222"/>
<circle cx="540.9092198154867" cy="638.3486342268998" r="4.5" fill="white" stroke="#222222" stroke-width="1.5"/>
<line x1="557.0" y1="675.9911057300363" x2="557.0" y2="549.9682170934013" stroke="#222222"/>
<circle cx="557.0" cy="613.6011167908366" r="4.5" fill="white" stroke="#222222" stroke-width="1.5"/>
<polyline points="398.8683546265945,653.574803662103 434.6526581493622,663.8363006650211 460.04202555191347,671.1169486421409 479.73554889016776,676.7642579536367 495.8263290746811,681.3784456321685 521.2156964772324,688.659093612296 540.9092198154867,694.3064029229324 557.0,698.9205906014643" fill="none" stroke="#2864dc" stroke-width="2.2"/>
<polyline points="398.8683546265945,658.0520975120719 434.6526581493622,661.56924109242 460.04202555191347,667.4958307226073 479.73554889016776,674.0542082421439 495.8263290746811,680.6848049642354 521.2156964772324,693.4736676351768 540.9092198154867,705.3548376597282 557.0,716.334472529491" fill="none" stroke="#e68613" stroke-width="2.2" stroke-dasharray="7,4"/>
<text x="325.0" y="820" text-anchor="middle" font-family="Arial" font-size="12">log separation</text>
<rect x="610" y="465" width="540" height="365" fill="#fcfcfc" stroke="#cccccc"/>
<text x="880.0" y="490" text-anchor="middle" font-family="Arial" font-size="16" font-weight="bold">separation = 1/4 of full side 2L</text>
<line x1="668.0" y1="782.0" x2="1132.0" y2="782.0" stroke="#e6e6e6"/>
<text x="661.0" y="786.0" text-anchor="end" font-family="Arial" font-size="10">-0.53</text>
<line x1="668.0" y1="713.25" x2="1132.0" y2="713.25" stroke="#e6e6e6"/>
<text x="661.0" y="717.25" text-anchor="end" font-family="Arial" font-size="10">-0.19</text>
<line x1="668.0" y1="644.5" x2="1132.0" y2="644.5" stroke="#e6e6e6"/>
<text x="661.0" y="648.5" text-anchor="end" font-family="Arial" font-size="10">0.16</text>
<line x1="668.0" y1="575.75" x2="1132.0" y2="575.75" stroke="#e6e6e6"/>
<text x="661.0" y="579.75" text-anchor="end" font-family="Arial" font-size="10">0.5</text>
<line x1="668.0" y1="507.0" x2="1132.0" y2="507.0" stroke="#e6e6e6"/>
<text x="661.0" y="511.0" text-anchor="end" font-family="Arial" font-size="10">0.84</text>
<line x1="668.0" y1="507.0" x2="668.0" y2="782.0" stroke="black"/>
<line x1="668.0" y1="782.0" x2="1132.0" y2="782.0" stroke="black"/>
<line x1="668.0" y1="659.0035696006817" x2="668.0" y2="653.2753042301522" stroke="#aaaaaa"/>
<circle cx="668.0" cy="656.1067891100222" r="3.5" fill="#aaaaaa" stroke="#aaaaaa" stroke-width="1.5"/>
<line x1="729.1736709253189" y1="662.1224866194897" x2="729.1736709253189" y2="655.6761559610917" stroke="#aaaaaa"/>
<circle cx="729.1736709253189" cy="658.9250221140351" r="3.5" fill="#aaaaaa" stroke="#aaaaaa" stroke-width="1.5"/>
<line x1="790.3473418506378" y1="660.8917571930193" x2="790.3473418506378" y2="653.7778510086882" stroke="#aaaaaa"/>
<circle cx="790.3473418506378" cy="657.3281990887922" r="3.5" fill="#aaaaaa" stroke="#aaaaaa" stroke-width="1.5"/>
<line x1="851.5210127759567" y1="659.6152024489149" x2="851.5210127759567" y2="651.8003464669935" stroke="#aaaaaa"/>
<circle cx="851.5210127759567" cy="655.6220899839849" r="3.5" fill="#aaaaaa" stroke="#aaaaaa" stroke-width="1.5"/>
<line x1="912.6946837012756" y1="661.2301757157945" x2="912.6946837012756" y2="652.1377653726557" stroke="#aaaaaa"/>
<circle cx="912.6946837012756" cy="656.7115588901822" r="3.5" fill="#aaaaaa" stroke="#aaaaaa" stroke-width="1.5"/>
<line x1="948.4789872240433" y1="663.0409637736308" x2="948.4789872240433" y2="652.022105148922" stroke="#aaaaaa"/>
<circle cx="948.4789872240433" cy="657.5342825083701" r="3.5" fill="#aaaaaa" stroke="#aaaaaa" stroke-width="1.5"/>
<line x1="973.8683546265945" y1="665.4188609600014" x2="973.8683546265945" y2="652.7349877573633" stroke="#222222"/>
<circle cx="973.8683546265945" cy="659.1096897901618" r="3.5" fill="#222222" stroke="#222222" stroke-width="1.5"/>
<line x1="1009.6526581493622" y1="659.8050766088309" x2="1009.6526581493622" y2="641.1255199422576" stroke="#222222"/>
<circle cx="1009.6526581493622" cy="650.4903229961801" r="3.5" fill="#222222" stroke="#222222" stroke-width="1.5"/>
<line x1="1035.0420255519134" y1="658.5624026294115" x2="1035.0420255519134" y2="633.9811988711132" stroke="#222222"/>
<circle cx="1035.0420255519134" cy="646.2993976586661" r="3.5" fill="#222222" stroke="#222222" stroke-width="1.5"/>
<line x1="1054.7355488901678" y1="667.3515658126834" x2="1054.7355488901678" y2="626.7424130833145" stroke="#222222"/>
<circle cx="1054.7355488901678" cy="647.3196404429126" r="3.5" fill="#222222" stroke="#222222" stroke-width="1.5"/>
<line x1="1070.826329074681" y1="671.4377913863614" x2="1070.826329074681" y2="627.5127509289458" stroke="#222222"/>
<circle cx="1070.826329074681" cy="649.0537033024382" r="3.5" fill="#222222" stroke="#222222" stroke-width="1.5"/>
<line x1="1096.2156964772325" y1="712.7106827711305" x2="1096.2156964772325" y2="641.9974504861889" stroke="#222222"/>
<circle cx="1096.2156964772325" cy="677.6947357089764" r="3.5" fill="#222222" stroke="#222222" stroke-width="1.5"/>
<line x1="1115.9092198154867" y1="741.979216729909" x2="1115.9092198154867" y2="637.9687154960567" stroke="#222222"/>
<circle cx="1115.9092198154867" cy="688.2804442468787" r="4.5" fill="white" stroke="#222222" stroke-width="1.5"/>
<line x1="1132.0" y1="675.1674595747363" x2="1132.0" y2="547.020783270091" stroke="#222222"/>
<circle cx="1132.0" cy="614.491719171849" r="4.5" fill="white" stroke="#222222" stroke-width="1.5"/>
<polyline points="973.8683546265945,648.9048429374752 1009.6526581493622,652.19721760691 1035.0420255519134,654.5331946076284 1054.7355488901678,656.3451191476533 1070.826329074681,657.8255692890696 1096.2156964772325,660.1615462937899 1115.9092198154867,661.9734708278118 1132.0,663.4539209672268" fill="none" stroke="#2864dc" stroke-width="2.2"/>
<polyline points="973.8683546265945,661.4595726863774 1009.6526581493622,645.8401811620622 1035.0420255519134,644.379258207347 1054.7355488901678,648.7458989559698 1070.826329074681,655.8805392217566 1096.2156964772325,673.6620396670227 1115.9092198154867,692.9542635629955 1132.0,712.2839932261605" fill="none" stroke="#e68613" stroke-width="2.2" stroke-dasharray="7,4"/>
<text x="900.0" y="820" text-anchor="middle" font-family="Arial" font-size="12">log separation</text>
<line x1="420" y1="875" x2="450" y2="875" stroke="#2864dc" stroke-width="2.2"/><text x="458" y="879" font-family="Arial" font-size="12">a + b log r</text>
<line x1="590" y1="875" x2="620" y2="875" stroke="#e68613" stroke-width="2.2" stroke-dasharray="7,4"/><text x="628" y="879" font-family="Arial" font-size="12">a + b log r + c(log r)²</text>
<circle cx="900" cy="875" r="4" fill="#222222"/><text x="910" y="879" font-family="Arial" font-size="12">training</text><circle cx="980" cy="875" r="4.5" fill="white" stroke="#222222"/><text x="990" y="879" font-family="Arial" font-size="12">held out</text><circle cx="1070" cy="875" r="4" fill="#aaaaaa"/><text x="1080" y="879" font-family="Arial" font-size="12">excluded</text>
</svg>
