<svg xmlns="http://www.w3.org/2000/svg" width="1120" height="1120" viewBox="0 0 1120 1120">
<rect width="100%" height="100%" fill="#ffffff"/>
<text x="560.00" y="28.00" font-family="Arial, sans-serif" font-size="19" font-weight="700" text-anchor="middle" fill="#111827">Mean Loop-Erased Path Length</text>
<rect x="88" y="58" width="732" height="980" fill="#f9fafb" stroke="#d1d5db"/>
<line x1="88" y1="1306.24" x2="820" y2="1306.24" stroke="#e5e7eb"/>
<text x="78.00" y="1310.24" font-family="Arial, sans-serif" font-size="11" font-weight="400" text-anchor="end" fill="#4b5563">-500</text>
<line x1="88" y1="994.41" x2="820" y2="994.41" stroke="#e5e7eb"/>
<text x="78.00" y="998.41" font-family="Arial, sans-serif" font-size="11" font-weight="400" text-anchor="end" fill="#4b5563">0</text>
<line x1="88" y1="682.58" x2="820" y2="682.58" stroke="#e5e7eb"/>
<text x="78.00" y="686.58" font-family="Arial, sans-serif" font-size="11" font-weight="400" text-anchor="end" fill="#4b5563">500</text>
<line x1="88" y1="370.75" x2="820" y2="370.75" stroke="#e5e7eb"/>
<text x="78.00" y="374.75" font-family="Arial, sans-serif" font-size="11" font-weight="400" text-anchor="end" fill="#4b5563">1000</text>
<line x1="88" y1="58.92" x2="820" y2="58.92" stroke="#e5e7eb"/>
<text x="78.00" y="62.92" font-family="Arial, sans-serif" font-size="11" font-weight="400" text-anchor="end" fill="#4b5563">1500</text>
<line x1="88" y1="-252.90" x2="820" y2="-252.90" stroke="#e5e7eb"/>
<text x="78.00" y="-248.90" font-family="Arial, sans-serif" font-size="11" font-weight="400" text-anchor="end" fill="#4b5563">2000</text>
<line x1="88.00" y1="58" x2="88.00" y2="1038" stroke="#eef2f7"/>
<text x="88.00" y="1060.00" font-family="Arial, sans-serif" font-size="11" font-weight="400" text-anchor="middle" fill="#4b5563">16</text>
<line x1="271.00" y1="58" x2="271.00" y2="1038" stroke="#eef2f7"/>
<text x="271.00" y="1060.00" font-family="Arial, sans-serif" font-size="11" font-weight="400" text-anchor="middle" fill="#4b5563">32</text>
<line x1="454.00" y1="58" x2="454.00" y2="1038" stroke="#eef2f7"/>
<text x="454.00" y="1060.00" font-family="Arial, sans-serif" font-size="11" font-weight="400" text-anchor="middle" fill="#4b5563">64</text>
<line x1="637.00" y1="58" x2="637.00" y2="1038" stroke="#eef2f7"/>
<text x="637.00" y="1060.00" font-family="Arial, sans-serif" font-size="11" font-weight="400" text-anchor="middle" fill="#4b5563">128</text>
<line x1="820.00" y1="58" x2="820.00" y2="1038" stroke="#eef2f7"/>
<text x="820.00" y="1060.00" font-family="Arial, sans-serif" font-size="11" font-weight="400" text-anchor="middle" fill="#4b5563">256</text>
<line x1="88" y1="1038" x2="820" y2="1038" stroke="#111827"/>
<line x1="88" y1="58" x2="88" y2="1038" stroke="#111827"/>
<text x="454.00" y="1092.00" font-family="Arial, sans-serif" font-size="13" font-weight="400" text-anchor="middle" fill="#111827">box size L (shown at log L positions)</text>
<text x="22" y="548.00" font-family="Arial, sans-serif" font-size="13" text-anchor="middle" fill="#111827" transform="rotate(-90 22 548.00)">mean LERW steps</text>
<polyline points="88.00,969.29 271.00,934.43 454.00,849.85 637.00,645.72 820.00,165.24" fill="none" stroke="#1f2937" stroke-width="2.4"/>
<circle cx="88.00" cy="969.29" r="4" fill="#1f2937" stroke="#ffffff" stroke-width="1"/>
<circle cx="271.00" cy="934.43" r="4" fill="#1f2937" stroke="#ffffff" stroke-width="1"/>
<circle cx="454.00" cy="849.85" r="4" fill="#1f2937" stroke="#ffffff" stroke-width="1"/>
<circle cx="637.00" cy="645.72" r="4" fill="#1f2937" stroke="#ffffff" stroke-width="1"/>
<circle cx="820.00" cy="165.24" r="4" fill="#1f2937" stroke="#ffffff" stroke-width="1"/>
<polyline points="88.00,970.41 271.00,939.86 454.00,879.28 637.00,752.37 820.00,482.61" fill="none" stroke="#dc2626" stroke-width="2.4"/>
<circle cx="88.00" cy="970.41" r="4" fill="#dc2626" stroke="#ffffff" stroke-width="1"/>
<circle cx="271.00" cy="939.86" r="4" fill="#dc2626" stroke="#ffffff" stroke-width="1"/>
<circle cx="454.00" cy="879.28" r="4" fill="#dc2626" stroke="#ffffff" stroke-width="1"/>
<circle cx="637.00" cy="752.37" r="4" fill="#dc2626" stroke="#ffffff" stroke-width="1"/>
<circle cx="820.00" cy="482.61" r="4" fill="#dc2626" stroke="#ffffff" stroke-width="1"/>
<polyline points="88.00,969.21 271.00,933.80 454.00,849.50 637.00,652.79 820.00,177.66" fill="none" stroke="#0f766e" stroke-width="2.4"/>
<circle cx="88.00" cy="969.21" r="4" fill="#0f766e" stroke="#ffffff" stroke-width="1"/>
<circle cx="271.00" cy="933.80" r="4" fill="#0f766e" stroke="#ffffff" stroke-width="1"/>
<circle cx="454.00" cy="849.50" r="4" fill="#0f766e" stroke="#ffffff" stroke-width="1"/>
<circle cx="637.00" cy="652.79" r="4" fill="#0f766e" stroke="#ffffff" stroke-width="1"/>
<circle cx="820.00" cy="177.66" r="4" fill="#0f766e" stroke="#ffffff" stroke-width="1"/>
<polyline points="88.00,968.44 271.00,932.45 454.00,848.64 637.00,650.68 820.00,154.88" fill="none" stroke="#db2777" stroke-width="2.4"/>
<circle cx="88.00" cy="968.44" r="4" fill="#db2777" stroke="#ffffff" stroke-width="1"/>
<circle cx="271.00" cy="932.45" r="4" fill="#db2777" stroke="#ffffff" stroke-width="1"/>
<circle cx="454.00" cy="848.64" r="4" fill="#db2777" stroke="#ffffff" stroke-width="1"/>
<circle cx="637.00" cy="650.68" r="4" fill="#db2777" stroke="#ffffff" stroke-width="1"/>
<circle cx="820.00" cy="154.88" r="4" fill="#db2777" stroke="#ffffff" stroke-width="1"/>
<polyline points="88.00,968.09 271.00,932.44 454.00,844.16 637.00,638.31 820.00,125.59" fill="none" stroke="#581c87" stroke-width="2.4"/>
<circle cx="88.00" cy="968.09" r="4" fill="#581c87" stroke="#ffffff" stroke-width="1"/>
<circle cx="271.00" cy="932.44" r="4" fill="#581c87" stroke="#ffffff" stroke-width="1"/>
<circle cx="454.00" cy="844.16" r="4" fill="#581c87" stroke="#ffffff" stroke-width="1"/>
<circle cx="637.00" cy="638.31" r="4" fill="#581c87" stroke="#ffffff" stroke-width="1"/>
<circle cx="820.00" cy="125.59" r="4" fill="#581c87" stroke="#ffffff" stroke-width="1"/>
<line x1="852" y1="68" x2="874" y2="68" stroke="#1f2937" stroke-width="3"/>
<circle cx="863" cy="68" r="3.5" fill="#1f2937"/>
<text x="882.00" y="72.00" font-family="Arial, sans-serif" font-size="12" font-weight="400" text-anchor="start" fill="#374151">symmetric</text>
<line x1="852" y1="90" x2="874" y2="90" stroke="#dc2626" stroke-width="3"/>
<circle cx="863" cy="90" r="3.5" fill="#dc2626"/>
<text x="882.00" y="94.00" font-family="Arial, sans-serif" font-size="12" font-weight="400" text-anchor="start" fill="#374151">gamma, k=1</text>
<line x1="852" y1="112" x2="874" y2="112" stroke="#0f766e" stroke-width="3"/>
<circle cx="863" cy="112" r="3.5" fill="#0f766e"/>
<text x="882.00" y="116.00" font-family="Arial, sans-serif" font-size="12" font-weight="400" text-anchor="start" fill="#374151">gamma4, k=20</text>
<line x1="852" y1="134" x2="874" y2="134" stroke="#db2777" stroke-width="3"/>
<circle cx="863" cy="134" r="3.5" fill="#db2777"/>
<text x="882.00" y="138.00" font-family="Arial, sans-serif" font-size="12" font-weight="400" text-anchor="start" fill="#374151">gamma4, k=1</text>
<line x1="852" y1="156" x2="874" y2="156" stroke="#581c87" stroke-width="3"/>
<circle cx="863" cy="156" r="3.5" fill="#581c87"/>
<text x="882.00" y="160.00" font-family="Arial, sans-serif" font-size="12" font-weight="400" text-anchor="start" fill="#374151">gamma4, k=0.5</text>
</svg>
