<svg xmlns="http://www.w3.org/2000/svg" width="1120" height="1120" viewBox="0 0 1120 1120">
<rect width="100%" height="100%" fill="#ffffff"/>
<text x="560.00" y="28.00" font-family="Arial, sans-serif" font-size="19" font-weight="700" text-anchor="middle" fill="#111827">Drift Diagnostic: Mean Boundary Hit x/L</text>
<rect x="88" y="58" width="732" height="980" fill="#f9fafb" stroke="#d1d5db"/>
<line x1="88" y1="1406.80" x2="820" y2="1406.80" stroke="#e5e7eb"/>
<text x="78.00" y="1410.80" font-family="Arial, sans-serif" font-size="11" font-weight="400" text-anchor="end" fill="#4b5563">-0.5</text>
<line x1="88" y1="947.35" x2="820" y2="947.35" stroke="#e5e7eb"/>
<text x="78.00" y="951.35" font-family="Arial, sans-serif" font-size="11" font-weight="400" text-anchor="end" fill="#4b5563">0</text>
<line x1="88" y1="487.90" x2="820" y2="487.90" stroke="#e5e7eb"/>
<text x="78.00" y="491.90" font-family="Arial, sans-serif" font-size="11" font-weight="400" text-anchor="end" fill="#4b5563">0.5</text>
<line x1="88" y1="28.45" x2="820" y2="28.45" stroke="#e5e7eb"/>
<text x="78.00" y="32.45" font-family="Arial, sans-serif" font-size="11" font-weight="400" text-anchor="end" fill="#4b5563">1</text>
<line x1="88.00" y1="58" x2="88.00" y2="1038" stroke="#eef2f7"/>
<text x="88.00" y="1060.00" font-family="Arial, sans-serif" font-size="11" font-weight="400" text-anchor="middle" fill="#4b5563">16</text>
<line x1="271.00" y1="58" x2="271.00" y2="1038" stroke="#eef2f7"/>
<text x="271.00" y="1060.00" font-family="Arial, sans-serif" font-size="11" font-weight="400" text-anchor="middle" fill="#4b5563">32</text>
<line x1="454.00" y1="58" x2="454.00" y2="1038" stroke="#eef2f7"/>
<text x="454.00" y="1060.00" font-family="Arial, sans-serif" font-size="11" font-weight="400" text-anchor="middle" fill="#4b5563">64</text>
<line x1="637.00" y1="58" x2="637.00" y2="1038" stroke="#eef2f7"/>
<text x="637.00" y="1060.00" font-family="Arial, sans-serif" font-size="11" font-weight="400" text-anchor="middle" fill="#4b5563">128</text>
<line x1="820.00" y1="58" x2="820.00" y2="1038" stroke="#eef2f7"/>
<text x="820.00" y="1060.00" font-family="Arial, sans-serif" font-size="11" font-weight="400" text-anchor="middle" fill="#4b5563">256</text>
<line x1="88" y1="1038" x2="820" y2="1038" stroke="#111827"/>
<line x1="88" y1="58" x2="88" y2="1038" stroke="#111827"/>
<text x="454.00" y="1092.00" font-family="Arial, sans-serif" font-size="13" font-weight="400" text-anchor="middle" fill="#111827">box size L (shown at log L positions)</text>
<text x="22" y="548.00" font-family="Arial, sans-serif" font-size="13" text-anchor="middle" fill="#111827" transform="rotate(-90 22 548.00)">mean hit x / L</text>
<polyline points="88.00,950.96 271.00,921.71 454.00,867.54 637.00,947.39 820.00,963.54" fill="none" stroke="#1f2937" stroke-width="2.4"/>
<circle cx="88.00" cy="950.96" r="4" fill="#1f2937" stroke="#ffffff" stroke-width="1"/>
<circle cx="271.00" cy="921.71" r="4" fill="#1f2937" stroke="#ffffff" stroke-width="1"/>
<circle cx="454.00" cy="867.54" r="4" fill="#1f2937" stroke="#ffffff" stroke-width="1"/>
<circle cx="637.00" cy="947.39" r="4" fill="#1f2937" stroke="#ffffff" stroke-width="1"/>
<circle cx="820.00" cy="963.54" r="4" fill="#1f2937" stroke="#ffffff" stroke-width="1"/>
<polyline points="88.00,402.25 271.00,296.94 454.00,236.68 637.00,183.28 820.00,125.59" fill="none" stroke="#dc2626" stroke-width="2.4"/>
<circle cx="88.00" cy="402.25" r="4" fill="#dc2626" stroke="#ffffff" stroke-width="1"/>
<circle cx="271.00" cy="296.94" r="4" fill="#dc2626" stroke="#ffffff" stroke-width="1"/>
<circle cx="454.00" cy="236.68" r="4" fill="#dc2626" stroke="#ffffff" stroke-width="1"/>
<circle cx="637.00" cy="183.28" r="4" fill="#dc2626" stroke="#ffffff" stroke-width="1"/>
<circle cx="820.00" cy="125.59" r="4" fill="#dc2626" stroke="#ffffff" stroke-width="1"/>
<polyline points="88.00,907.07 271.00,907.43 454.00,926.82 637.00,954.06 820.00,931.60" fill="none" stroke="#0f766e" stroke-width="2.4"/>
<circle cx="88.00" cy="907.07" r="4" fill="#0f766e" stroke="#ffffff" stroke-width="1"/>
<circle cx="271.00" cy="907.43" r="4" fill="#0f766e" stroke="#ffffff" stroke-width="1"/>
<circle cx="454.00" cy="926.82" r="4" fill="#0f766e" stroke="#ffffff" stroke-width="1"/>
<circle cx="637.00" cy="954.06" r="4" fill="#0f766e" stroke="#ffffff" stroke-width="1"/>
<circle cx="820.00" cy="931.60" r="4" fill="#0f766e" stroke="#ffffff" stroke-width="1"/>
<polyline points="88.00,960.39 271.00,967.16 454.00,923.64 637.00,941.23 820.00,921.98" fill="none" stroke="#db2777" stroke-width="2.4"/>
<circle cx="88.00" cy="960.39" r="4" fill="#db2777" stroke="#ffffff" stroke-width="1"/>
<circle cx="271.00" cy="967.16" r="4" fill="#db2777" stroke="#ffffff" stroke-width="1"/>
<circle cx="454.00" cy="923.64" r="4" fill="#db2777" stroke="#ffffff" stroke-width="1"/>
<circle cx="637.00" cy="941.23" r="4" fill="#db2777" stroke="#ffffff" stroke-width="1"/>
<circle cx="820.00" cy="921.98" r="4" fill="#db2777" stroke="#ffffff" stroke-width="1"/>
<polyline points="88.00,945.63 271.00,959.45 454.00,965.13 637.00,970.41 820.00,931.99" fill="none" stroke="#581c87" stroke-width="2.4"/>
<circle cx="88.00" cy="945.63" r="4" fill="#581c87" stroke="#ffffff" stroke-width="1"/>
<circle cx="271.00" cy="959.45" r="4" fill="#581c87" stroke="#ffffff" stroke-width="1"/>
<circle cx="454.00" cy="965.13" r="4" fill="#581c87" stroke="#ffffff" stroke-width="1"/>
<circle cx="637.00" cy="970.41" r="4" fill="#581c87" stroke="#ffffff" stroke-width="1"/>
<circle cx="820.00" cy="931.99" r="4" fill="#581c87" stroke="#ffffff" stroke-width="1"/>
<line x1="852" y1="68" x2="874" y2="68" stroke="#1f2937" stroke-width="3"/>
<circle cx="863" cy="68" r="3.5" fill="#1f2937"/>
<text x="882.00" y="72.00" font-family="Arial, sans-serif" font-size="12" font-weight="400" text-anchor="start" fill="#374151">symmetric</text>
<line x1="852" y1="90" x2="874" y2="90" stroke="#dc2626" stroke-width="3"/>
<circle cx="863" cy="90" r="3.5" fill="#dc2626"/>
<text x="882.00" y="94.00" font-family="Arial, sans-serif" font-size="12" font-weight="400" text-anchor="start" fill="#374151">gamma, k=1</text>
<line x1="852" y1="112" x2="874" y2="112" stroke="#0f766e" stroke-width="3"/>
<circle cx="863" cy="112" r="3.5" fill="#0f766e"/>
<text x="882.00" y="116.00" font-family="Arial, sans-serif" font-size="12" font-weight="400" text-anchor="start" fill="#374151">gamma4, k=20</text>
<line x1="852" y1="134" x2="874" y2="134" stroke="#db2777" stroke-width="3"/>
<circle cx="863" cy="134" r="3.5" fill="#db2777"/>
<text x="882.00" y="138.00" font-family="Arial, sans-serif" font-size="12" font-weight="400" text-anchor="start" fill="#374151">gamma4, k=1</text>
<line x1="852" y1="156" x2="874" y2="156" stroke="#581c87" stroke-width="3"/>
<circle cx="863" cy="156" r="3.5" fill="#581c87"/>
<text x="882.00" y="160.00" font-family="Arial, sans-serif" font-size="12" font-weight="400" text-anchor="start" fill="#374151">gamma4, k=0.5</text>
</svg>
