<?xml version="1.0" encoding="UTF-8"?>
<svg xmlns="http://www.w3.org/2000/svg" viewBox="0 0 1200 520">
<title>Common log-squared coefficient across four separations</title><desc>Environment-clustered pooled coefficient with 95 percent bootstrap intervals.</desc>
<rect width="1200" height="520" fill="white"/>
<text x="600.0" y="34" text-anchor="middle" font-family="Arial" font-size="22" font-weight="bold">Common log-squared coefficient across four separations</text>
<line x1="705.0688977778361" y1="85" x2="705.0688977778361" y2="410" stroke="#555555" stroke-width="1.5" stroke-dasharray="5,4"/>
<line x1="250.0" y1="410" x2="250.0" y2="417" stroke="black"/>
<text x="250.0" y="437" text-anchor="middle" font-family="Arial" font-size="12">-0.029</text>
<line x1="424.0" y1="410" x2="424.0" y2="417" stroke="black"/>
<text x="424.0" y="437" text-anchor="middle" font-family="Arial" font-size="12">-0.018</text>
<line x1="598.0" y1="410" x2="598.0" y2="417" stroke="black"/>
<text x="598.0" y="437" text-anchor="middle" font-family="Arial" font-size="12">-0.0067</text>
<line x1="772.0000000000001" y1="410" x2="772.0000000000001" y2="417" stroke="black"/>
<text x="772.0000000000001" y="437" text-anchor="middle" font-family="Arial" font-size="12">0.0042</text>
<line x1="946.0" y1="410" x2="946.0" y2="417" stroke="black"/>
<text x="946.0" y="437" text-anchor="middle" font-family="Arial" font-size="12">0.015</text>
<line x1="1120.0" y1="410" x2="1120.0" y2="417" stroke="black"/>
<text x="1120.0" y="437" text-anchor="middle" font-family="Arial" font-size="12">0.026</text>
<line x1="250" y1="410" x2="1120" y2="410" stroke="black"/>
<text x="230" y="130" text-anchor="end" font-family="Arial" font-size="15">Disorder covariance</text>
<line x1="477.44332841914337" y1="101" x2="976.3263476324956" y2="101" stroke="#2864dc" stroke-width="3"/>
<line x1="477.44332841914337" y1="95" x2="477.44332841914337" y2="107" stroke="#2864dc"/>
<line x1="976.3263476324956" y1="95" x2="976.3263476324956" y2="107" stroke="#2864dc"/>
<circle cx="728.5509693027232" cy="101" r="6" fill="#2864dc"/>
<line x1="645.172933371558" y1="125" x2="805.9733735239445" y2="125" stroke="#e68613" stroke-width="3"/>
<line x1="645.172933371558" y1="119" x2="645.172933371558" y2="131" stroke="#e68613"/>
<line x1="805.9733735239445" y1="119" x2="805.9733735239445" y2="131" stroke="#e68613"/>
<circle cx="726.7699276473113" cy="125" r="6" fill="#e68613"/>
<line x1="642.7772512386739" y1="149" x2="805.2615654962613" y2="149" stroke="#228b22" stroke-width="3"/>
<line x1="642.7772512386739" y1="143" x2="642.7772512386739" y2="155" stroke="#228b22"/>
<line x1="805.2615654962613" y1="143" x2="805.2615654962613" y2="155" stroke="#228b22"/>
<circle cx="724.448292441904" cy="149" r="6" fill="#228b22"/>
<text x="230" y="255" text-anchor="end" font-family="Arial" font-size="15">Disordered conditional</text>
<line x1="334.19354838709677" y1="226" x2="903.6139866405545" y2="226" stroke="#2864dc" stroke-width="3"/>
<line x1="334.19354838709677" y1="220" x2="334.19354838709677" y2="232" stroke="#2864dc"/>
<line x1="903.6139866405545" y1="220" x2="903.6139866405545" y2="232" stroke="#2864dc"/>
<circle cx="653.5260539040919" cy="226" r="6" fill="#2864dc"/>
<line x1="532.1283049393941" y1="250" x2="731.6967566327705" y2="250" stroke="#e68613" stroke-width="3"/>
<line x1="532.1283049393941" y1="244" x2="532.1283049393941" y2="256" stroke="#e68613"/>
<line x1="731.6967566327705" y1="244" x2="731.6967566327705" y2="256" stroke="#e68613"/>
<circle cx="640.5268735796159" cy="250" r="6" fill="#e68613"/>
<line x1="528.4318173558015" y1="274" x2="721.7532138601526" y2="274" stroke="#228b22" stroke-width="3"/>
<line x1="528.4318173558015" y1="268" x2="528.4318173558015" y2="280" stroke="#228b22"/>
<line x1="721.7532138601526" y1="268" x2="721.7532138601526" y2="280" stroke="#228b22"/>
<circle cx="633.8923587221279" cy="274" r="6" fill="#228b22"/>
<text x="230" y="380" text-anchor="end" font-family="Arial" font-size="15">No-disorder control</text>
<line x1="504.506980633554" y1="351" x2="1035.8064516129034" y2="351" stroke="#2864dc" stroke-width="3"/>
<line x1="504.506980633554" y1="345" x2="504.506980633554" y2="357" stroke="#2864dc"/>
<line x1="1035.8064516129034" y1="345" x2="1035.8064516129034" y2="357" stroke="#2864dc"/>
<circle cx="816.3238982757628" cy="351" r="6" fill="#2864dc"/>
<line x1="653.5684611526385" y1="375" x2="811.5919717815382" y2="375" stroke="#e68613" stroke-width="3"/>
<line x1="653.5684611526385" y1="369" x2="653.5684611526385" y2="381" stroke="#e68613"/>
<line x1="811.5919717815382" y1="369" x2="811.5919717815382" y2="381" stroke="#e68613"/>
<circle cx="741.0395735189586" cy="375" r="6" fill="#e68613"/>
<line x1="656.9663337563967" y1="399" x2="813.645776964231" y2="399" stroke="#228b22" stroke-width="3"/>
<line x1="656.9663337563967" y1="393" x2="656.9663337563967" y2="405" stroke="#228b22"/>
<line x1="813.645776964231" y1="393" x2="813.645776964231" y2="405" stroke="#228b22"/>
<circle cx="744.6745649661416" cy="399" r="6" fill="#228b22"/>
<text x="685" y="475" text-anchor="middle" font-family="Arial" font-size="15">coefficient c in a + b log(r) + c(log(r))²</text>
<circle cx="470" cy="502" r="5" fill="#2864dc"/><text x="482" y="507" font-family="Arial" font-size="12">unweighted</text>
<circle cx="610" cy="502" r="5" fill="#e68613"/><text x="622" y="507" font-family="Arial" font-size="12">inverse-variance weighted</text>
<circle cx="820" cy="502" r="5" fill="#228b22"/><text x="832" y="507" font-family="Arial" font-size="12">block GLS</text>
</svg>
