<?xml version="1.0" encoding="UTF-8"?>
<svg xmlns="http://www.w3.org/2000/svg" viewBox="0 0 1200 520">
<title>Common log-squared coefficient across four separations</title><desc>Environment-clustered pooled coefficient with 95 percent bootstrap intervals.</desc>
<rect width="1200" height="520" fill="white"/>
<text x="600.0" y="34" text-anchor="middle" font-family="Arial" font-size="22" font-weight="bold">Common log-squared coefficient across four separations</text>
<line x1="736.2546390585437" y1="85" x2="736.2546390585437" y2="410" stroke="#555555" stroke-width="1.5" stroke-dasharray="5,4"/>
<line x1="250.0" y1="410" x2="250.0" y2="417" stroke="black"/>
<text x="250.0" y="437" text-anchor="middle" font-family="Arial" font-size="12">-0.2</text>
<line x1="424.0" y1="410" x2="424.0" y2="417" stroke="black"/>
<text x="424.0" y="437" text-anchor="middle" font-family="Arial" font-size="12">-0.13</text>
<line x1="598.0" y1="410" x2="598.0" y2="417" stroke="black"/>
<text x="598.0" y="437" text-anchor="middle" font-family="Arial" font-size="12">-0.057</text>
<line x1="772.0" y1="410" x2="772.0" y2="417" stroke="black"/>
<text x="772.0" y="437" text-anchor="middle" font-family="Arial" font-size="12">0.015</text>
<line x1="946.0" y1="410" x2="946.0" y2="417" stroke="black"/>
<text x="946.0" y="437" text-anchor="middle" font-family="Arial" font-size="12">0.087</text>
<line x1="1120.0" y1="410" x2="1120.0" y2="417" stroke="black"/>
<text x="1120.0" y="437" text-anchor="middle" font-family="Arial" font-size="12">0.16</text>
<line x1="250" y1="410" x2="1120" y2="410" stroke="black"/>
<text x="230" y="130" text-anchor="end" font-family="Arial" font-size="15">Disorder covariance</text>
<line x1="683.2362337481604" y1="101" x2="1035.8064516129032" y2="101" stroke="#2864dc" stroke-width="3"/>
<line x1="683.2362337481604" y1="95" x2="683.2362337481604" y2="107" stroke="#2864dc"/>
<line x1="1035.8064516129032" y1="95" x2="1035.8064516129032" y2="107" stroke="#2864dc"/>
<circle cx="868.2367506960638" cy="101" r="6" fill="#2864dc"/>
<line x1="615.6489048839087" y1="125" x2="835.2197508281698" y2="125" stroke="#e68613" stroke-width="3"/>
<line x1="615.6489048839087" y1="119" x2="615.6489048839087" y2="131" stroke="#e68613"/>
<line x1="835.2197508281698" y1="119" x2="835.2197508281698" y2="131" stroke="#e68613"/>
<circle cx="726.8130061901697" cy="125" r="6" fill="#e68613"/>
<line x1="624.2458949415966" y1="149" x2="837.9098879117698" y2="149" stroke="#228b22" stroke-width="3"/>
<line x1="624.2458949415966" y1="143" x2="624.2458949415966" y2="155" stroke="#228b22"/>
<line x1="837.9098879117698" y1="143" x2="837.9098879117698" y2="155" stroke="#228b22"/>
<circle cx="733.2040625616585" cy="149" r="6" fill="#228b22"/>
<text x="230" y="255" text-anchor="end" font-family="Arial" font-size="15">Disordered conditional</text>
<line x1="334.19354838709677" y1="226" x2="868.2083886949187" y2="226" stroke="#2864dc" stroke-width="3"/>
<line x1="334.19354838709677" y1="220" x2="334.19354838709677" y2="232" stroke="#2864dc"/>
<line x1="868.2083886949187" y1="220" x2="868.2083886949187" y2="232" stroke="#2864dc"/>
<circle cx="621.284500100231" cy="226" r="6" fill="#2864dc"/>
<line x1="469.9001263424473" y1="250" x2="755.0317220286711" y2="250" stroke="#e68613" stroke-width="3"/>
<line x1="469.9001263424473" y1="244" x2="469.9001263424473" y2="256" stroke="#e68613"/>
<line x1="755.0317220286711" y1="244" x2="755.0317220286711" y2="256" stroke="#e68613"/>
<circle cx="626.6400040099636" cy="250" r="6" fill="#e68613"/>
<line x1="454.99777197544427" y1="274" x2="736.5923816151883" y2="274" stroke="#228b22" stroke-width="3"/>
<line x1="454.99777197544427" y1="268" x2="454.99777197544427" y2="280" stroke="#228b22"/>
<line x1="736.5923816151883" y1="268" x2="736.5923816151883" y2="280" stroke="#228b22"/>
<circle cx="609.9901391224037" cy="274" r="6" fill="#228b22"/>
<text x="230" y="380" text-anchor="end" font-family="Arial" font-size="15">No-disorder control</text>
<line x1="553.3213549820478" y1="351" x2="1022.927513444972" y2="351" stroke="#2864dc" stroke-width="3"/>
<line x1="553.3213549820478" y1="345" x2="553.3213549820478" y2="357" stroke="#2864dc"/>
<line x1="1022.927513444972" y1="345" x2="1022.927513444972" y2="357" stroke="#2864dc"/>
<circle cx="817.3895759293208" cy="351" r="6" fill="#2864dc"/>
<line x1="569.1411619220737" y1="375" x2="814.4525235820303" y2="375" stroke="#e68613" stroke-width="3"/>
<line x1="569.1411619220737" y1="369" x2="569.1411619220737" y2="381" stroke="#e68613"/>
<line x1="814.4525235820303" y1="369" x2="814.4525235820303" y2="381" stroke="#e68613"/>
<circle cx="706.2953725844532" cy="375" r="6" fill="#e68613"/>
<line x1="580.5374453237253" y1="399" x2="821.9384288443006" y2="399" stroke="#228b22" stroke-width="3"/>
<line x1="580.5374453237253" y1="393" x2="580.5374453237253" y2="405" stroke="#228b22"/>
<line x1="821.9384288443006" y1="393" x2="821.9384288443006" y2="405" stroke="#228b22"/>
<circle cx="718.1990629987838" cy="399" r="6" fill="#228b22"/>
<text x="685" y="475" text-anchor="middle" font-family="Arial" font-size="15">coefficient c in a + b log(r) + c(log(r))²</text>
<circle cx="470" cy="502" r="5" fill="#2864dc"/><text x="482" y="507" font-family="Arial" font-size="12">unweighted</text>
<circle cx="610" cy="502" r="5" fill="#e68613"/><text x="622" y="507" font-family="Arial" font-size="12">inverse-variance weighted</text>
<circle cx="820" cy="502" r="5" fill="#228b22"/><text x="832" y="507" font-family="Arial" font-size="12">block GLS</text>
</svg>
