<svg xmlns="http://www.w3.org/2000/svg" width="1120" height="1120" viewBox="0 0 1120 1120">
<rect width="100%" height="100%" fill="#ffffff"/>
<text x="560.00" y="28.00" font-family="Arial, sans-serif" font-size="19" font-weight="700" text-anchor="middle" fill="#111827">Drift Diagnostic: Mean Boundary Hit x/L</text>
<rect x="88" y="58" width="732" height="980" fill="#f9fafb" stroke="#d1d5db"/>
<line x1="88" y1="1350.52" x2="820" y2="1350.52" stroke="#e5e7eb"/>
<text x="78.00" y="1354.52" font-family="Arial, sans-serif" font-size="11" font-weight="400" text-anchor="end" fill="#4b5563">-0.5</text>
<line x1="88" y1="907.88" x2="820" y2="907.88" stroke="#e5e7eb"/>
<text x="78.00" y="911.88" font-family="Arial, sans-serif" font-size="11" font-weight="400" text-anchor="end" fill="#4b5563">0</text>
<line x1="88" y1="465.23" x2="820" y2="465.23" stroke="#e5e7eb"/>
<text x="78.00" y="469.23" font-family="Arial, sans-serif" font-size="11" font-weight="400" text-anchor="end" fill="#4b5563">0.5</text>
<line x1="88" y1="22.59" x2="820" y2="22.59" stroke="#e5e7eb"/>
<text x="78.00" y="26.59" font-family="Arial, sans-serif" font-size="11" font-weight="400" text-anchor="end" fill="#4b5563">1</text>
<line x1="88.00" y1="58" x2="88.00" y2="1038" stroke="#eef2f7"/>
<text x="88.00" y="1060.00" font-family="Arial, sans-serif" font-size="11" font-weight="400" text-anchor="middle" fill="#4b5563">16</text>
<line x1="271.00" y1="58" x2="271.00" y2="1038" stroke="#eef2f7"/>
<text x="271.00" y="1060.00" font-family="Arial, sans-serif" font-size="11" font-weight="400" text-anchor="middle" fill="#4b5563">32</text>
<line x1="454.00" y1="58" x2="454.00" y2="1038" stroke="#eef2f7"/>
<text x="454.00" y="1060.00" font-family="Arial, sans-serif" font-size="11" font-weight="400" text-anchor="middle" fill="#4b5563">64</text>
<line x1="637.00" y1="58" x2="637.00" y2="1038" stroke="#eef2f7"/>
<text x="637.00" y="1060.00" font-family="Arial, sans-serif" font-size="11" font-weight="400" text-anchor="middle" fill="#4b5563">128</text>
<line x1="820.00" y1="58" x2="820.00" y2="1038" stroke="#eef2f7"/>
<text x="820.00" y="1060.00" font-family="Arial, sans-serif" font-size="11" font-weight="400" text-anchor="middle" fill="#4b5563">256</text>
<line x1="88" y1="1038" x2="820" y2="1038" stroke="#111827"/>
<line x1="88" y1="58" x2="88" y2="1038" stroke="#111827"/>
<text x="454.00" y="1092.00" font-family="Arial, sans-serif" font-size="13" font-weight="400" text-anchor="middle" fill="#111827">box size L (shown at log L positions)</text>
<text x="22" y="548.00" font-family="Arial, sans-serif" font-size="13" text-anchor="middle" fill="#111827" transform="rotate(-90 22 548.00)">mean hit x / L</text>
<polyline points="88.00,962.10 271.00,937.76 454.00,849.14 637.00,947.07 820.00,956.14" fill="none" stroke="#1f2937" stroke-width="2.4"/>
<circle cx="88.00" cy="962.10" r="4" fill="#1f2937" stroke="#ffffff" stroke-width="1"/>
<circle cx="271.00" cy="937.76" r="4" fill="#1f2937" stroke="#ffffff" stroke-width="1"/>
<circle cx="454.00" cy="849.14" r="4" fill="#1f2937" stroke="#ffffff" stroke-width="1"/>
<circle cx="637.00" cy="947.07" r="4" fill="#1f2937" stroke="#ffffff" stroke-width="1"/>
<circle cx="820.00" cy="956.14" r="4" fill="#1f2937" stroke="#ffffff" stroke-width="1"/>
<polyline points="88.00,415.99 271.00,281.54 454.00,203.48 637.00,145.17 820.00,125.59" fill="none" stroke="#dc2626" stroke-width="2.4"/>
<circle cx="88.00" cy="415.99" r="4" fill="#dc2626" stroke="#ffffff" stroke-width="1"/>
<circle cx="271.00" cy="281.54" r="4" fill="#dc2626" stroke="#ffffff" stroke-width="1"/>
<circle cx="454.00" cy="203.48" r="4" fill="#dc2626" stroke="#ffffff" stroke-width="1"/>
<circle cx="637.00" cy="145.17" r="4" fill="#dc2626" stroke="#ffffff" stroke-width="1"/>
<circle cx="820.00" cy="125.59" r="4" fill="#dc2626" stroke="#ffffff" stroke-width="1"/>
<polyline points="88.00,917.10 271.00,913.50 454.00,914.01 637.00,927.06 820.00,911.87" fill="none" stroke="#0f766e" stroke-width="2.4"/>
<circle cx="88.00" cy="917.10" r="4" fill="#0f766e" stroke="#ffffff" stroke-width="1"/>
<circle cx="271.00" cy="913.50" r="4" fill="#0f766e" stroke="#ffffff" stroke-width="1"/>
<circle cx="454.00" cy="914.01" r="4" fill="#0f766e" stroke="#ffffff" stroke-width="1"/>
<circle cx="637.00" cy="927.06" r="4" fill="#0f766e" stroke="#ffffff" stroke-width="1"/>
<circle cx="820.00" cy="911.87" r="4" fill="#0f766e" stroke="#ffffff" stroke-width="1"/>
<polyline points="88.00,917.47 271.00,962.47 454.00,951.91 637.00,870.39 820.00,925.41" fill="none" stroke="#db2777" stroke-width="2.4"/>
<circle cx="88.00" cy="917.47" r="4" fill="#db2777" stroke="#ffffff" stroke-width="1"/>
<circle cx="271.00" cy="962.47" r="4" fill="#db2777" stroke="#ffffff" stroke-width="1"/>
<circle cx="454.00" cy="951.91" r="4" fill="#db2777" stroke="#ffffff" stroke-width="1"/>
<circle cx="637.00" cy="870.39" r="4" fill="#db2777" stroke="#ffffff" stroke-width="1"/>
<circle cx="820.00" cy="925.41" r="4" fill="#db2777" stroke="#ffffff" stroke-width="1"/>
<polyline points="88.00,887.59 271.00,885.65 454.00,946.33 637.00,891.42 820.00,970.41" fill="none" stroke="#581c87" stroke-width="2.4"/>
<circle cx="88.00" cy="887.59" r="4" fill="#581c87" stroke="#ffffff" stroke-width="1"/>
<circle cx="271.00" cy="885.65" r="4" fill="#581c87" stroke="#ffffff" stroke-width="1"/>
<circle cx="454.00" cy="946.33" r="4" fill="#581c87" stroke="#ffffff" stroke-width="1"/>
<circle cx="637.00" cy="891.42" r="4" fill="#581c87" stroke="#ffffff" stroke-width="1"/>
<circle cx="820.00" cy="970.41" r="4" fill="#581c87" stroke="#ffffff" stroke-width="1"/>
<line x1="852" y1="68" x2="874" y2="68" stroke="#1f2937" stroke-width="3"/>
<circle cx="863" cy="68" r="3.5" fill="#1f2937"/>
<text x="882.00" y="72.00" font-family="Arial, sans-serif" font-size="12" font-weight="400" text-anchor="start" fill="#374151">symmetric</text>
<line x1="852" y1="90" x2="874" y2="90" stroke="#dc2626" stroke-width="3"/>
<circle cx="863" cy="90" r="3.5" fill="#dc2626"/>
<text x="882.00" y="94.00" font-family="Arial, sans-serif" font-size="12" font-weight="400" text-anchor="start" fill="#374151">gamma, k=1</text>
<line x1="852" y1="112" x2="874" y2="112" stroke="#0f766e" stroke-width="3"/>
<circle cx="863" cy="112" r="3.5" fill="#0f766e"/>
<text x="882.00" y="116.00" font-family="Arial, sans-serif" font-size="12" font-weight="400" text-anchor="start" fill="#374151">gamma4, k=20</text>
<line x1="852" y1="134" x2="874" y2="134" stroke="#db2777" stroke-width="3"/>
<circle cx="863" cy="134" r="3.5" fill="#db2777"/>
<text x="882.00" y="138.00" font-family="Arial, sans-serif" font-size="12" font-weight="400" text-anchor="start" fill="#374151">gamma4, k=1</text>
<line x1="852" y1="156" x2="874" y2="156" stroke="#581c87" stroke-width="3"/>
<circle cx="863" cy="156" r="3.5" fill="#581c87"/>
<text x="882.00" y="160.00" font-family="Arial, sans-serif" font-size="12" font-weight="400" text-anchor="start" fill="#374151">gamma4, k=0.5</text>
</svg>
