<svg xmlns="http://www.w3.org/2000/svg" width="1120" height="1120" viewBox="0 0 1120 1120">
<rect width="100%" height="100%" fill="#ffffff"/>
<text x="560.00" y="28.00" font-family="Arial, sans-serif" font-size="19" font-weight="700" text-anchor="middle" fill="#111827">Winding Variance vs (log L)^2</text>
<rect x="88" y="58" width="732" height="980" fill="#f9fafb" stroke="#d1d5db"/>
<line x1="88" y1="1190.36" x2="820" y2="1190.36" stroke="#e5e7eb"/>
<text x="78.00" y="1194.36" font-family="Arial, sans-serif" font-size="11" font-weight="400" text-anchor="end" fill="#4b5563">1</text>
<line x1="88" y1="864.78" x2="820" y2="864.78" stroke="#e5e7eb"/>
<text x="78.00" y="868.78" font-family="Arial, sans-serif" font-size="11" font-weight="400" text-anchor="end" fill="#4b5563">2</text>
<line x1="88" y1="539.19" x2="820" y2="539.19" stroke="#e5e7eb"/>
<text x="78.00" y="543.19" font-family="Arial, sans-serif" font-size="11" font-weight="400" text-anchor="end" fill="#4b5563">3</text>
<line x1="88" y1="213.61" x2="820" y2="213.61" stroke="#e5e7eb"/>
<text x="78.00" y="217.61" font-family="Arial, sans-serif" font-size="11" font-weight="400" text-anchor="end" fill="#4b5563">4</text>
<line x1="88" y1="-111.97" x2="820" y2="-111.97" stroke="#e5e7eb"/>
<text x="78.00" y="-107.97" font-family="Arial, sans-serif" font-size="11" font-weight="400" text-anchor="end" fill="#4b5563">5</text>
<line x1="88.00" y1="58" x2="88.00" y2="1038" stroke="#eef2f7"/>
<text x="88.00" y="1060.00" font-family="Arial, sans-serif" font-size="11" font-weight="400" text-anchor="middle" fill="#4b5563">16</text>
<line x1="225.25" y1="58" x2="225.25" y2="1038" stroke="#eef2f7"/>
<text x="225.25" y="1060.00" font-family="Arial, sans-serif" font-size="11" font-weight="400" text-anchor="middle" fill="#4b5563">32</text>
<line x1="393.00" y1="58" x2="393.00" y2="1038" stroke="#eef2f7"/>
<text x="393.00" y="1060.00" font-family="Arial, sans-serif" font-size="11" font-weight="400" text-anchor="middle" fill="#4b5563">64</text>
<line x1="591.25" y1="58" x2="591.25" y2="1038" stroke="#eef2f7"/>
<text x="591.25" y="1060.00" font-family="Arial, sans-serif" font-size="11" font-weight="400" text-anchor="middle" fill="#4b5563">128</text>
<line x1="820.00" y1="58" x2="820.00" y2="1038" stroke="#eef2f7"/>
<text x="820.00" y="1060.00" font-family="Arial, sans-serif" font-size="11" font-weight="400" text-anchor="middle" fill="#4b5563">256</text>
<line x1="88" y1="1038" x2="820" y2="1038" stroke="#111827"/>
<line x1="88" y1="58" x2="88" y2="1038" stroke="#111827"/>
<text x="454.00" y="1092.00" font-family="Arial, sans-serif" font-size="13" font-weight="400" text-anchor="middle" fill="#111827">box size L (shown at (log L)^2 positions)</text>
<text x="22" y="548.00" font-family="Arial, sans-serif" font-size="13" text-anchor="middle" fill="#111827" transform="rotate(-90 22 548.00)">sample variance of winding</text>
<polyline points="88.00,970.41 225.25,641.55 393.00,628.28 591.25,221.24 820.00,157.92" fill="none" stroke="#1f2937" stroke-width="2.4"/>
<circle cx="88.00" cy="970.41" r="4" fill="#1f2937" stroke="#ffffff" stroke-width="1"/>
<circle cx="225.25" cy="641.55" r="4" fill="#1f2937" stroke="#ffffff" stroke-width="1"/>
<circle cx="393.00" cy="628.28" r="4" fill="#1f2937" stroke="#ffffff" stroke-width="1"/>
<circle cx="591.25" cy="221.24" r="4" fill="#1f2937" stroke="#ffffff" stroke-width="1"/>
<circle cx="820.00" cy="157.92" r="4" fill="#1f2937" stroke="#ffffff" stroke-width="1"/>
<polyline points="88.00,940.00 225.25,877.84 393.00,813.02 591.25,790.08 820.00,900.80" fill="none" stroke="#dc2626" stroke-width="2.4"/>
<circle cx="88.00" cy="940.00" r="4" fill="#dc2626" stroke="#ffffff" stroke-width="1"/>
<circle cx="225.25" cy="877.84" r="4" fill="#dc2626" stroke="#ffffff" stroke-width="1"/>
<circle cx="393.00" cy="813.02" r="4" fill="#dc2626" stroke="#ffffff" stroke-width="1"/>
<circle cx="591.25" cy="790.08" r="4" fill="#dc2626" stroke="#ffffff" stroke-width="1"/>
<circle cx="820.00" cy="900.80" r="4" fill="#dc2626" stroke="#ffffff" stroke-width="1"/>
<polyline points="88.00,892.61 225.25,718.07 393.00,568.12 591.25,334.06 820.00,152.65" fill="none" stroke="#0f766e" stroke-width="2.4"/>
<circle cx="88.00" cy="892.61" r="4" fill="#0f766e" stroke="#ffffff" stroke-width="1"/>
<circle cx="225.25" cy="718.07" r="4" fill="#0f766e" stroke="#ffffff" stroke-width="1"/>
<circle cx="393.00" cy="568.12" r="4" fill="#0f766e" stroke="#ffffff" stroke-width="1"/>
<circle cx="591.25" cy="334.06" r="4" fill="#0f766e" stroke="#ffffff" stroke-width="1"/>
<circle cx="820.00" cy="152.65" r="4" fill="#0f766e" stroke="#ffffff" stroke-width="1"/>
<polyline points="88.00,706.02 225.25,648.96 393.00,534.11 591.25,388.93 820.00,125.59" fill="none" stroke="#db2777" stroke-width="2.4"/>
<circle cx="88.00" cy="706.02" r="4" fill="#db2777" stroke="#ffffff" stroke-width="1"/>
<circle cx="225.25" cy="648.96" r="4" fill="#db2777" stroke="#ffffff" stroke-width="1"/>
<circle cx="393.00" cy="534.11" r="4" fill="#db2777" stroke="#ffffff" stroke-width="1"/>
<circle cx="591.25" cy="388.93" r="4" fill="#db2777" stroke="#ffffff" stroke-width="1"/>
<circle cx="820.00" cy="125.59" r="4" fill="#db2777" stroke="#ffffff" stroke-width="1"/>
<polyline points="88.00,842.09 225.25,824.50 393.00,536.45 591.25,176.72 820.00,145.10" fill="none" stroke="#581c87" stroke-width="2.4"/>
<circle cx="88.00" cy="842.09" r="4" fill="#581c87" stroke="#ffffff" stroke-width="1"/>
<circle cx="225.25" cy="824.50" r="4" fill="#581c87" stroke="#ffffff" stroke-width="1"/>
<circle cx="393.00" cy="536.45" r="4" fill="#581c87" stroke="#ffffff" stroke-width="1"/>
<circle cx="591.25" cy="176.72" r="4" fill="#581c87" stroke="#ffffff" stroke-width="1"/>
<circle cx="820.00" cy="145.10" r="4" fill="#581c87" stroke="#ffffff" stroke-width="1"/>
<line x1="852" y1="68" x2="874" y2="68" stroke="#1f2937" stroke-width="3"/>
<circle cx="863" cy="68" r="3.5" fill="#1f2937"/>
<text x="882.00" y="72.00" font-family="Arial, sans-serif" font-size="12" font-weight="400" text-anchor="start" fill="#374151">symmetric</text>
<line x1="852" y1="90" x2="874" y2="90" stroke="#dc2626" stroke-width="3"/>
<circle cx="863" cy="90" r="3.5" fill="#dc2626"/>
<text x="882.00" y="94.00" font-family="Arial, sans-serif" font-size="12" font-weight="400" text-anchor="start" fill="#374151">gamma, k=1</text>
<line x1="852" y1="112" x2="874" y2="112" stroke="#0f766e" stroke-width="3"/>
<circle cx="863" cy="112" r="3.5" fill="#0f766e"/>
<text x="882.00" y="116.00" font-family="Arial, sans-serif" font-size="12" font-weight="400" text-anchor="start" fill="#374151">gamma4, k=20</text>
<line x1="852" y1="134" x2="874" y2="134" stroke="#db2777" stroke-width="3"/>
<circle cx="863" cy="134" r="3.5" fill="#db2777"/>
<text x="882.00" y="138.00" font-family="Arial, sans-serif" font-size="12" font-weight="400" text-anchor="start" fill="#374151">gamma4, k=1</text>
<line x1="852" y1="156" x2="874" y2="156" stroke="#581c87" stroke-width="3"/>
<circle cx="863" cy="156" r="3.5" fill="#581c87"/>
<text x="882.00" y="160.00" font-family="Arial, sans-serif" font-size="12" font-weight="400" text-anchor="start" fill="#374151">gamma4, k=0.5</text>
</svg>
